<svg width="864" height="864" viewBox="0 0 864 864" fill="none" xmlns="http://www.w3.org/2000/svg">
<g filter="url(#filter0_dii_286_2)">
<path fill-rule="evenodd" clip-rule="evenodd" d="M844 262.627C844 252.845 844.004 243.062 843.944 233.279C843.895 225.038 843.8 216.799 843.576 208.562C843.092 190.609 842.033 172.502 838.84 154.749C835.602 136.741 830.314 119.98 821.981 103.617C813.789 87.5337 803.088 72.8168 790.32 60.0578C777.555 47.2989 762.834 36.6049 746.746 28.4179C730.366 20.0829 713.587 14.797 695.558 11.56C677.803 8.37199 659.691 7.315 641.738 6.83C633.495 6.607 625.253 6.513 617.008 6.462C607.22 6.402 597.432 6.407 587.644 6.407L473.997 6H388.997L277.361 6.407C267.554 6.407 257.747 6.402 247.94 6.462C239.678 6.513 231.42 6.607 223.161 6.83C205.167 7.315 187.014 8.37299 169.217 11.565C151.164 14.801 134.36 20.0849 117.958 28.4139C101.835 36.6019 87.0825 47.2969 74.2906 60.0578C61.5007 72.8158 50.7798 87.5297 42.5728 103.61C34.2169 119.981 28.9189 136.752 25.673 154.77C22.477 172.516 21.418 190.617 20.931 208.562C20.709 216.8 20.613 225.039 20.563 233.279C20.503 243.063 20 255.216 20 264.999L20.003 375.089L20 460.998L20.508 573.427C20.508 583.223 20.504 593.019 20.563 602.815C20.613 611.067 20.709 619.317 20.932 627.566C21.418 645.542 22.479 663.675 25.678 681.452C28.9229 699.484 34.2199 716.269 42.5688 732.653C50.7768 748.759 61.4997 763.495 74.2906 776.272C87.0815 789.049 101.83 799.757 117.95 807.956C134.362 816.302 151.174 821.595 169.238 824.836C187.027 828.029 205.174 829.088 223.161 829.573C231.42 829.796 239.679 829.891 247.941 829.941C257.748 830.001 267.554 829.997 277.361 829.997L390.006 830H475.217L587.644 829.996C597.432 829.996 607.22 830.001 617.008 829.941C625.253 829.891 633.495 829.796 641.738 829.573C659.698 829.087 677.816 828.027 695.579 824.832C713.597 821.591 730.368 816.3 746.739 807.959C762.831 799.761 777.554 789.051 790.32 776.272C803.086 763.497 813.786 748.763 821.978 732.66C830.316 716.268 835.604 699.475 838.844 681.431C842.034 663.661 843.092 645.535 843.577 627.566C843.8 619.316 843.895 611.066 843.944 602.815C844.005 593.019 844 583.223 844 573.427C844 573.427 843.994 462.983 843.994 460.998V374.999C843.994 373.533 844 262.627 844 262.627" fill="url(#paint0_linear_286_2)"/>
</g>
<g filter="url(#filter1_dii_286_2)">
<path d="M485.467 188.422C456.791 185.074 429.581 201.908 419.749 229.08C417.533 235.203 416.755 241.824 416.39 248.764C416.115 253.999 416.049 260.24 416.034 267.589L416.028 277.896C416.028 278.005 416.028 278.113 416.028 278.222V460.939C396.801 442.875 370.934 431.812 342.485 431.812C283.123 431.812 235 479.983 235 539.406C235 598.828 283.123 647 342.485 647C401.848 647 449.97 598.828 449.97 539.406V340.314C452.342 341.579 454.911 342.864 457.726 344.271L518.991 374.934C528.457 379.671 536.159 383.527 542.471 386.281C548.835 389.058 555.098 391.322 561.561 392.077C590.236 395.425 617.447 378.591 627.279 351.42C629.495 345.296 630.273 338.675 630.638 331.736C630.999 324.854 630.999 316.234 630.999 305.641L631 303.765C631.003 295.888 631.006 289.726 629.89 283.886C627.015 268.855 618.713 255.408 606.568 246.113C601.849 242.501 596.342 239.748 589.302 236.229L528.036 205.565C518.571 200.828 510.868 196.972 504.557 194.218C498.193 191.442 491.929 189.177 485.467 188.422Z" fill="#EEEEEE"/>
</g>
<defs>
<filter id="filter0_dii_286_2" x="0" y="0" width="864" height="864" filterUnits="userSpaceOnUse" color-interpolation-filters="sRGB">
<feFlood flood-opacity="0" result="BackgroundImageFix"/>
<feColorMatrix in="SourceAlpha" type="matrix" values="0 0 0 0 0 0 0 0 0 0 0 0 0 0 0 0 0 0 127 0" result="hardAlpha"/>
<feOffset dy="14"/>
<feGaussianBlur stdDeviation="10"/>
<feColorMatrix type="matrix" values="0 0 0 0 0 0 0 0 0 0 0 0 0 0 0 0 0 0 0.25 0"/>
<feBlend mode="normal" in2="BackgroundImageFix" result="effect1_dropShadow_286_2"/>
<feBlend mode="normal" in="SourceGraphic" in2="effect1_dropShadow_286_2" result="shape"/>
<feColorMatrix in="SourceAlpha" type="matrix" values="0 0 0 0 0 0 0 0 0 0 0 0 0 0 0 0 0 0 127 0" result="hardAlpha"/>
<feOffset dy="4"/>
<feGaussianBlur stdDeviation="1"/>
<feComposite in2="hardAlpha" operator="arithmetic" k2="-1" k3="1"/>
<feColorMatrix type="matrix" values="0 0 0 0 1 0 0 0 0 1 0 0 0 0 1 0 0 0 0.44 0"/>
<feBlend mode="normal" in2="shape" result="effect2_innerShadow_286_2"/>
<feColorMatrix in="SourceAlpha" type="matrix" values="0 0 0 0 0 0 0 0 0 0 0 0 0 0 0 0 0 0 127 0" result="hardAlpha"/>
<feOffset dy="-3"/>
<feGaussianBlur stdDeviation="2"/>
<feComposite in2="hardAlpha" operator="arithmetic" k2="-1" k3="1"/>
<feColorMatrix type="matrix" values="0 0 0 0 0 0 0 0 0 0 0 0 0 0 0 0 0 0 0.25 0"/>
<feBlend mode="normal" in2="effect2_innerShadow_286_2" result="effect3_innerShadow_286_2"/>
</filter>
<filter id="filter1_dii_286_2" x="187.7" y="158.67" width="490.6" height="553.6" filterUnits="userSpaceOnUse" color-interpolation-filters="sRGB">
<feFlood flood-opacity="0" result="BackgroundImageFix"/>
<feColorMatrix in="SourceAlpha" type="matrix" values="0 0 0 0 0 0 0 0 0 0 0 0 0 0 0 0 0 0 127 0" result="hardAlpha"/>
<feOffset dy="17.9696"/>
<feGaussianBlur stdDeviation="23.65"/>
<feColorMatrix type="matrix" values="0 0 0 0 0 0 0 0 0 0 0 0 0 0 0 0 0 0 0.1 0"/>
<feBlend mode="normal" in2="BackgroundImageFix" result="effect1_dropShadow_286_2"/>
<feBlend mode="normal" in="SourceGraphic" in2="effect1_dropShadow_286_2" result="shape"/>
<feColorMatrix in="SourceAlpha" type="matrix" values="0 0 0 0 0 0 0 0 0 0 0 0 0 0 0 0 0 0 127 0" result="hardAlpha"/>
<feOffset dy="4"/>
<feGaussianBlur stdDeviation="1"/>
<feComposite in2="hardAlpha" operator="arithmetic" k2="-1" k3="1"/>
<feColorMatrix type="matrix" values="0 0 0 0 1 0 0 0 0 1 0 0 0 0 1 0 0 0 1 0"/>
<feBlend mode="normal" in2="shape" result="effect2_innerShadow_286_2"/>
<feColorMatrix in="SourceAlpha" type="matrix" values="0 0 0 0 0 0 0 0 0 0 0 0 0 0 0 0 0 0 127 0" result="hardAlpha"/>
<feOffset dy="-4"/>
<feGaussianBlur stdDeviation="1"/>
<feComposite in2="hardAlpha" operator="arithmetic" k2="-1" k3="1"/>
<feColorMatrix type="matrix" values="0 0 0 0 0 0 0 0 0 0 0 0 0 0 0 0 0 0 0.1 0"/>
<feBlend mode="normal" in2="effect2_innerShadow_286_2" result="effect3_innerShadow_286_2"/>
</filter>
<linearGradient id="paint0_linear_286_2" x1="432" y1="6" x2="432" y2="830" gradientUnits="userSpaceOnUse">
<stop offset="0.0227831" stop-color="#97F595"/>
<stop offset="1" stop-color="#57AB4C"/>
</linearGradient>
</defs>
</svg>
